<svg width="77" height="76" viewBox="0 0 77 76" fill="none" xmlns="http://www.w3.org/2000/svg">
<path id="avg_pace" d="M50.73 11.9912C49.4129 11.9912 48.2997 11.5365 47.3902 10.6271C46.4808 9.71768 46.0261 8.60444 46.0261 7.28737C46.0261 5.97029 46.4808 4.85705 47.3902 3.94764C48.2997 3.03824 49.4129 2.58353 50.73 2.58353C52.047 2.58353 53.1603 3.03824 54.0697 3.94764C54.9791 4.85705 55.4338 5.97029 55.4338 7.28737C55.4338 8.60444 54.9791 9.71768 54.0697 10.6271C53.1603 11.5365 52.047 11.9912 50.73 11.9912ZM50.73 74.0819C49.4129 74.0819 48.2997 73.6272 47.3902 72.7178C46.4808 71.8083 46.0261 70.6951 46.0261 69.378C46.0261 68.061 46.4808 66.9477 47.3902 66.0383C48.2997 65.1289 49.4129 64.6742 50.73 64.6742C52.047 64.6742 53.1603 65.1289 54.0697 66.0383C54.9791 66.9477 55.4338 68.061 55.4338 69.378C55.4338 70.6951 54.9791 71.8083 54.0697 72.7178C53.1603 73.6272 52.047 74.0819 50.73 74.0819ZM65.7822 25.1619C64.4652 25.1619 63.3519 24.7072 62.4425 23.7978C61.5331 22.8884 61.0784 21.7752 61.0784 20.4581C61.0784 19.141 61.5331 18.0278 62.4425 17.1184C63.3519 16.209 64.4652 15.7543 65.7822 15.7543C67.0993 15.7543 68.2126 16.209 69.122 17.1184C70.0314 18.0278 70.4861 19.141 70.4861 20.4581C70.4861 21.7752 70.0314 22.8884 69.122 23.7978C68.2126 24.7072 67.0993 25.1619 65.7822 25.1619ZM65.7822 60.9111C64.4652 60.9111 63.3519 60.4564 62.4425 59.547C61.5331 58.6376 61.0784 57.5244 61.0784 56.2073C61.0784 54.8902 61.5331 53.777 62.4425 52.8676C63.3519 51.9582 64.4652 51.5034 65.7822 51.5034C67.0993 51.5034 68.2126 51.9582 69.122 52.8676C70.0314 53.777 70.4861 54.8902 70.4861 56.2073C70.4861 57.5244 70.0314 58.6376 69.122 59.547C68.2126 60.4564 67.0993 60.9111 65.7822 60.9111ZM71.4268 43.0365C70.1098 43.0365 68.9965 42.5818 68.0871 41.6724C67.1777 40.763 66.723 39.6498 66.723 38.3327C66.723 37.0156 67.1777 35.9024 68.0871 34.993C68.9965 34.0836 70.1098 33.6289 71.4268 33.6289C72.7439 33.6289 73.8572 34.0836 74.7666 34.993C75.676 35.9024 76.1307 37.0156 76.1307 38.3327C76.1307 39.6498 75.676 40.763 74.7666 41.6724C73.8572 42.5818 72.7439 43.0365 71.4268 43.0365ZM38.5 75.9634C33.2944 75.9634 28.4024 74.9756 23.824 73C19.2456 71.0244 15.263 68.3432 11.8763 64.9564C8.48951 61.5697 5.80832 57.5871 3.83271 53.0087C1.8571 48.4303 0.869293 43.5383 0.869293 38.3327C0.869293 33.1271 1.8571 28.2351 3.83271 23.6567C5.80832 19.0783 8.48951 15.0957 11.8763 11.709C15.263 8.32221 19.2456 5.64103 23.824 3.66541C28.4024 1.6898 33.1286 0.701996 38.5 0.701997V8.22814C30.0958 8.22814 22.9773 11.1445 17.1446 16.9773C11.3118 22.81 8.39543 29.9285 8.39543 38.3327C8.39543 46.7369 11.3118 53.8554 17.1446 59.6881C22.9773 65.5209 30.0958 68.4373 38.5 68.4373V75.9634ZM38.5 45.8588C36.4303 45.8588 34.6585 45.1219 33.1847 43.648C31.7108 42.1742 30.9739 40.4024 30.9739 38.3327C30.9739 38.0191 30.9895 37.6898 31.0209 37.3449C31.0522 36.9999 31.1306 36.6707 31.2561 36.3571L23.4477 28.5487L28.716 23.2804L36.5244 31.0888C36.7752 31.0261 37.4338 30.932 38.5 30.8066C40.5697 30.8066 42.3415 31.5435 43.8153 33.0174C45.2892 34.4912 46.0261 36.263 46.0261 38.3327C46.0261 40.4024 45.2892 42.1742 43.8153 43.648C42.3415 45.1219 40.5697 45.8588 38.5 45.8588Z" fill="#2E4EAC"/>
</svg>
